<?xml version="1.0" encoding="UTF-8"?>
<svg id="d" data-name="background" xmlns="http://www.w3.org/2000/svg" viewBox="0 0 1024 512">
  <rect width="1024" height="512" style="fill: #6b8cff; stroke-width: 0px;"/>
  <polygon points="1.94 300.55 135.34 195.73 559.37 519.71 -71.11 524.47 1.94 300.55" style="fill: none; stroke: #adbd00; stroke-linejoin: bevel; stroke-width: 22px;"/>
  <polygon points="1.94 300.55 135.34 195.73 559.37 519.71 -71.11 524.47 1.94 300.55" style="fill: #7e8c00; stroke-width: 0px;"/>
  <polygon points="1078.58 336.72 945.18 231.91 521.15 555.88 1151.63 560.64 1078.58 336.72" style="fill: none; stroke: #adbd00; stroke-linejoin: bevel; stroke-width: 22px;"/>
  <polygon points="1078.58 336.72 945.18 231.91 521.15 555.88 1151.63 560.64 1078.58 336.72" style="fill: #7e8c00; stroke-width: 0px;"/>
  <polygon points="181.09 494.49 452.96 321.63 814.39 584.06 77.38 591.92 181.09 494.49" style="fill: #385a00; stroke-width: 0px;"/>
  <path d="m282.76,104.09c.34-1.58.52-3.21.52-4.88,0-14.53-13.38-26.31-29.88-26.31s-29.88,11.78-29.88,26.31c0,.27.01.53.02.8-4.09-2.65-9.16-4.22-14.64-4.22-13.6,0-24.62,9.64-24.62,21.53,0,9.72,7.38,17.94,17.5,20.61,3.59,10.98,15.08,19.02,28.71,19.02,3.22,0,6.33-.46,9.24-1.29,6.64,10.17,18.75,16.98,32.58,16.98,20.98,0,37.98-15.65,37.98-34.95,0-15.97-11.64-29.42-27.54-33.6Z" style="fill: #fff; stroke-width: 0px;"/>
  <path d="m249.39,104.78c-8.71,1.19-16.31-1.78-16.97-6.62-.11-.84,0-1.67.29-2.5-4.04,1.99-6.54,5.1-6.12,8.22.62,4.58,7.29,7.45,14.89,6.42,5.42-.74,9.84-3.27,11.71-6.31-1.21.34-2.47.61-3.8.79Z" style="fill: #90d5ff; stroke-width: 0px;"/>
  <path d="m216.4,130.25c-8.71,1.19-16.31-1.78-16.97-6.62-.11-.84,0-1.67.29-2.5-4.04,1.99-6.54,5.1-6.12,8.22.62,4.58,7.29,7.45,14.89,6.42,5.42-.74,9.84-3.27,11.71-6.31-1.21.34-2.47.61-3.8.79Z" style="fill: #90d5ff; stroke-width: 0px;"/>
  <path d="m236.63,148.76c-2.84-12.16-1.36-22.9,3.3-23.99.81-.19,1.66-.06,2.52.32-2.74-5.59-6.3-8.98-9.3-8.28-4.41,1.03-5.98,10.46-3.5,21.07,1.77,7.56,5.11,13.66,8.49,16.17-.57-1.68-1.08-3.44-1.51-5.29Z" style="fill: #90d5ff; stroke-width: 0px;"/>
  <path d="m785.91,89.05c-.34,1.58-.52,3.21-.52,4.88,0,14.53,13.38,26.31,29.88,26.31s29.88-11.78,29.88-26.31c0-.27-.01-.53-.02-.8,4.09,2.65,9.16,4.22,14.64,4.22,13.6,0,24.62-9.64,24.62-21.53,0-9.72-7.38-17.94-17.5-20.61-3.59-10.98-15.08-19.02-28.71-19.02-3.22,0-6.33.46-9.24,1.29-6.64-10.17-18.75-16.98-32.58-16.98-20.98,0-37.98,15.65-37.98,34.95,0,15.97,11.64,29.42,27.54,33.6Z" style="fill: #fff; stroke-width: 0px;"/>
  <path d="m810.02,77.57c-4.82,7.36-12.04,11.15-16.13,8.47-.71-.46-1.26-1.1-1.69-1.86-1.15,4.36-.44,8.28,2.2,10.01,3.87,2.53,10.4-.62,14.61-7.03,3-4.58,3.98-9.57,2.91-12.98-.54,1.13-1.16,2.27-1.89,3.39Z" style="fill: #90d5ff; stroke-width: 0px;"/>
  <path d="m844.85,82.48c-.94-8.74,1.14-16.14,4.65-16.52.61-.07,1.22.1,1.81.43-1.48-4.14-3.76-6.81-6.02-6.56-3.32.36-5.34,6.83-4.52,14.45.59,5.44,2.46,9.98,4.69,12.02-.26-1.22-.47-2.5-.61-3.83Z" style="fill: #90d5ff; stroke-width: 0px;"/>
  <ellipse cx="143.62" cy="323.01" rx="6.84" ry="16.08" style="fill: #005a10; stroke-width: 0px;"/>
  <ellipse cx="735.73" cy="435.76" rx="6.84" ry="16.08" style="fill: #005a10; stroke-width: 0px;"/>
  <ellipse cx="976.19" cy="306.64" rx="6.84" ry="16.08" style="fill: #005a10; stroke-width: 0px;"/>
  <ellipse cx="945.31" cy="280.02" rx="6.84" ry="16.08" style="fill: #005a10; stroke-width: 0px;"/>
  <ellipse cx="949.55" cy="492.31" rx="6.84" ry="16.08" style="fill: #005a10; stroke-width: 0px;"/>
  <ellipse cx="921.03" cy="446.77" rx="6.84" ry="16.08" style="fill: #005a10; stroke-width: 0px;"/>
  <ellipse cx="895.63" cy="468.38" rx="6.84" ry="16.08" style="fill: #005a10; stroke-width: 0px;"/>
  <ellipse cx="869.26" cy="377.6" rx="6.84" ry="16.08" style="fill: #005a10; stroke-width: 0px;"/>
  <ellipse cx="756.06" cy="463.32" rx="6.84" ry="16.08" style="fill: #005a10; stroke-width: 0px;"/>
  <ellipse cx="1000.59" cy="415.92" rx="6.84" ry="16.08" style="fill: #005a10; stroke-width: 0px;"/>
  <ellipse cx="152.93" cy="247.75" rx="6.84" ry="16.08" style="fill: #005a10; stroke-width: 0px;"/>
  <ellipse cx="184.74" cy="464.22" rx="6.84" ry="16.08" style="fill: #005a10; stroke-width: 0px;"/>
  <ellipse cx="35" cy="468.1" rx="6.84" ry="16.08" style="fill: #005a10; stroke-width: 0px;"/>
  <ellipse cx="83.96" cy="447.7" rx="6.84" ry="16.08" style="fill: #005a10; stroke-width: 0px;"/>
  <ellipse cx="58.27" cy="433.96" rx="6.84" ry="16.08" style="fill: #005a10; stroke-width: 0px;"/>
  <ellipse cx="232.07" cy="394.39" rx="6.84" ry="16.08" style="fill: #005a10; stroke-width: 0px;"/>
  <ellipse cx="106.62" cy="295.5" rx="6.84" ry="16.08" style="fill: #005a10; stroke-width: 0px;"/>
  <ellipse cx="459.15" cy="356.03" rx="6.84" ry="16.08" style="fill: #638c00; stroke-width: 0px;"/>
  <ellipse cx="384.77" cy="428.89" rx="6.84" ry="16.08" style="fill: #638c00; stroke-width: 0px;"/>
  <ellipse cx="408.65" cy="465.75" rx="6.84" ry="16.08" style="fill: #638c00; stroke-width: 0px;"/>
  <ellipse cx="350.3" cy="451.51" rx="6.84" ry="16.08" style="fill: #638c00; stroke-width: 0px;"/>
  <ellipse cx="615.51" cy="499.56" rx="6.84" ry="16.08" style="fill: #638c00; stroke-width: 0px;"/>
  <ellipse cx="487.61" cy="448.3" rx="6.84" ry="16.08" style="fill: #638c00; stroke-width: 0px;"/>
  <ellipse cx="514.23" cy="418" rx="6.84" ry="16.08" style="fill: #638c00; stroke-width: 0px;"/>
  <path d="m681.06,251.58c-1.28-10.38-10.31-18.42-21.27-18.42s-20.55,8.57-21.36,19.43c-12.61,3.35-21.78,13.5-21.78,25.49,0,14.73,13.82,26.67,30.88,26.67,7.13,0,13.69-2.09,18.91-5.59,1.83.51,3.75.87,5.72,1.06,15.86,1.55,29.79-8.23,31.12-21.84,1.21-12.41-8.48-23.71-22.22-26.78Z" style="fill: #fff; stroke-width: 0px;"/>
  <path d="m667.27,267.6c-8.71,1.19-16.31-1.78-16.97-6.62-.11-.84,0-1.67.29-2.5-4.04,1.99-6.54,5.1-6.12,8.22.62,4.58,7.29,7.45,14.89,6.42,5.42-.74,9.84-3.27,11.71-6.31-1.21.34-2.47.61-3.8.79Z" style="fill: #90d5ff; stroke-width: 0px;"/>
  <path d="m663.5,281.02c4.81,4.73,6.58,10.73,3.95,13.4-.45.46-1.02.79-1.65,1,3.1,1.52,6.16,1.57,7.86-.15,2.48-2.53,1.1-7.92-3.1-12.04-2.99-2.94-6.6-4.43-9.33-4.13.77.57,1.53,1.21,2.26,1.93Z" style="fill: #90d5ff; stroke-width: 0px;"/>
  <polygon points="181.09 494.49 452.96 321.63 814.39 584.06 77.38 591.92 181.09 494.49" style="fill: none; stroke: #427b00; stroke-linejoin: bevel; stroke-width: 9px;"/>
</svg>